# xmcd
#
# Track frame offsets:
#	150
#	16981
#	35889
#	58513
#	70574
#	92228
#	117436
#	130059
#	143342
#	155137
#	167414
#	181812
#	194482
#	206794
#	222743
#	238672
#	252295
#	279282
#	307849
# Disc length: 4318 seconds
# Revision: 3
# Processed by: cddbd v1.5.1PL2 Copyright (c) Steve Scherf et al.
#
# Submitted via: libkcddb 0.21
#
DISCID=1210dc13
DTITLE=Divers - Harmonicas and Funny Instruments of the Blues
DYEAR=1900
DGENRE=Blues
TTITLE0=She Wants to Rock n' Roll - Harmonica Slim
TTITLE1=The Cuckoo - Taj Mahal
TTITLE2=Screamin' and Cryin' - Muddy Waters
TTITLE3=Corrina, Corrina - Bob Dylan
TTITLE4=That's your Thing - Buster Benton
TTITLE5=Got my Mojo Working - Junior Wells
TTITLE6=Goodbye Now - Brownie McGhee
TTITLE7=Diddle-Da-Diddle - Georgia Cotton Pickers
TTITLE8=Gator Wobble - Memphis Jug Band
TTITLE9=Long Chain Charlie Blues - Bill Cox
TTITLE10=Haunted Road Blues - Tom Ashley
TTITLE11=Jug Rag - Blue Ridge Ramblers
TTITLE12=Kansas City Blues - Bill Cox and Cliff Hobbs
TTITLE13=Chattanooga Mama - Allen Brothers
TTITLE14=I Want You to Love Me - Duster Bennet
TTITLE15=You're the Cream in my Coffee - Emmet Miller
TTITLE16=The Son I Never Knew (Take 2) - Kenny Neal and Billy Branch
TTITLE17=23 Hours Too Long - James Cotton
TTITLE18=Do I Have to Go That Far ? - Kenny Neal
EXTD=
EXTT0=
EXTT1=
EXTT2=
EXTT3=
EXTT4=
EXTT5=
EXTT6=
EXTT7=
EXTT8=
EXTT9=
EXTT10=
EXTT11=
EXTT12=
EXTT13=
EXTT14=
EXTT15=
EXTT16=
EXTT17=
EXTT18=
PLAYORDER=
